<svg version="1.1" xmlns="http://www.w3.org/2000/svg" xmlns:xlink="http://www.w3.org/1999/xlink" width="24px" height="24px" viewBox="0,0,256,256"><g fill-opacity="0.4" fill="#101010" fill-rule="nonzero" stroke="none" stroke-width="1" stroke-linecap="butt" stroke-linejoin="miter" stroke-miterlimit="10" stroke-dasharray="" stroke-dashoffset="0" font-family="none" font-weight="none" font-size="none" text-anchor="none" style="mix-blend-mode: normal"><g transform="scale(10.66667,10.66667)"><path d="M16.5,10c-0.276,0 -0.5,0.224 -0.5,0.5v11.766l-6.141,-6.336c-0.192,-0.197 -0.508,-0.203 -0.707,-0.011c-0.198,0.192 -0.203,0.509 -0.012,0.707l7,7.222c0.001,0.001 0.003,0.001 0.004,0.003c0.046,0.046 0.1,0.084 0.16,0.11v0c0.061,0.025 0.127,0.039 0.196,0.039c0.069,0 0.135,-0.014 0.195,-0.039v0c0.061,-0.026 0.115,-0.063 0.16,-0.11c0.001,-0.001 0.003,-0.001 0.004,-0.003l7,-7.222c0.191,-0.198 0.187,-0.515 -0.012,-0.707c-0.197,-0.192 -0.514,-0.186 -0.707,0.011l-6.14,6.336v-11.766c0,-0.276 -0.224,-0.5 -0.5,-0.5z"></path><path d="M7.859,0.152c-0.001,-0.001 -0.002,-0.002 -0.003,-0.003c-0.091,-0.092 -0.216,-0.149 -0.356,-0.149c-0.14,0 -0.265,0.057 -0.356,0.149c-0.001,0.001 -0.002,0.002 -0.003,0.003l-7,7.222c-0.191,0.198 -0.187,0.515 0.012,0.707c0.199,0.193 0.514,0.188 0.706,-0.011l6.141,-6.336v11.766c0,0.276 0.224,0.5 0.5,0.5c0.276,0 0.5,-0.224 0.5,-0.5v-11.766l6.141,6.336c0.099,0.101 0.229,0.152 0.359,0.152c0.125,0 0.251,-0.047 0.348,-0.141c0.198,-0.192 0.203,-0.509 0.012,-0.707z"></path></g></g></svg>