<svg version="1.1" xmlns="http://www.w3.org/2000/svg" xmlns:xlink="http://www.w3.org/1999/xlink" width="20px" height="20px" viewBox="0,0,256,256"><g fill-opacity="0.38039" fill="#101010" fill-rule="nonzero" stroke="none" stroke-width="1" stroke-linecap="butt" stroke-linejoin="miter" stroke-miterlimit="10" stroke-dasharray="" stroke-dashoffset="0" font-family="none" font-weight="none" font-size="none" text-anchor="none" style="mix-blend-mode: normal"><g transform="scale(5.12,5.12)"><path d="M3.8125,2c-0.47656,0.08984 -0.82031,0.51172 -0.8125,1v3c0.00391,0.25781 0.10156,0.50391 0.28125,0.6875l15.71875,16.6875v17.625c0.00781,0.34766 0.19922,0.66797 0.5,0.84375l10,6c0.30469,0.17578 0.68359,0.17969 0.99219,0.00391c0.30469,-0.17187 0.5,-0.49609 0.50781,-0.84766v-23.625l15.5625,-16.53125c0.01172,-0.01172 0.01953,-0.01953 0.03125,-0.03125l0.125,-0.125c0.04688,-0.04687 0.08984,-0.10156 0.125,-0.15625c0.02344,-0.01953 0.04297,-0.03906 0.0625,-0.0625c0.05859,-0.12891 0.08984,-0.26562 0.09375,-0.40625c0,-0.01953 0,-0.04297 0,-0.0625c0.00391,-0.05078 0.00391,-0.10547 0,-0.15625v-2.84375c0,-0.55078 -0.44922,-1 -1,-1h-42c-0.03125,0 -0.0625,0 -0.09375,0c-0.03125,0 -0.0625,0 -0.09375,0zM5,4h40v1.625l-15.4375,16.375h-9.125l-15.4375,-16.375zM21,24h8v21.25l-8,-4.78125z"></path></g></g></svg>