<svg version="1.1" xmlns="http://www.w3.org/2000/svg" xmlns:xlink="http://www.w3.org/1999/xlink" width="40px" height="40px" viewBox="0,0,256,256"><g fill="#000000" fill-rule="nonzero" stroke="none" stroke-width="1" stroke-linecap="butt" stroke-linejoin="miter" stroke-miterlimit="10" stroke-dasharray="" stroke-dashoffset="0" font-family="none" font-weight="none" font-size="none" text-anchor="none" style="mix-blend-mode: normal"><g transform="scale(5.12,5.12)"><path d="M25,4c-7.94821,0 -14.79429,4.47854 -18.35742,11h-2.64258c-0.55226,0.00006 -0.99994,0.44774 -1,1v18c0.00006,0.55226 0.44774,0.99994 1,1h2.64258c3.56313,6.52146 10.40921,11 18.35742,11c7.94821,0 14.79429,-4.47854 18.35742,-11h2.64258c0.55226,-0.00006 0.99994,-0.44774 1,-1v-18c-0.00006,-0.55226 -0.44774,-0.99994 -1,-1h-2.64258c-3.56313,-6.52146 -10.40922,-11 -18.35742,-11zM25,6c6.78815,0 12.59188,3.65306 15.95117,9h-31.90234c3.35929,-5.34694 9.16302,-9 15.95117,-9zM5,17h2.11914h35.72461h2.15625v16h-2.11914h-35.72461h-2.15625zM10.02539,20.54492v8.45508h1.69336v-5.29102h0.10547l3.90234,5.29102h1.46484v-8.45508h-1.69336v5.26758h-0.10547l-3.89062,-5.26758zM19.24219,20.54492v8.45508h5.60156v-1.51172h-3.83203v-2.05664h3.61523v-1.40039h-3.61523v-1.97461h3.83203v-1.51172zM26.19727,20.54492l2.23828,8.45508h1.66992l1.58203,-5.5957h0.09375l1.59961,5.5957h1.6582l2.24414,-8.45508h-1.82812l-1.30664,5.95898h-0.09375l-1.57031,-5.95898h-1.49414l-1.54102,5.95898h-0.09375l-1.31836,-5.95898zM38.99414,20.54492l0.15234,5.67188h1.56445l0.1582,-5.67187zM39.93164,27.17773c-0.657,0 -1.06741,0.38095 -1.06641,1.00195c0,0.615 0.41041,0.99609 1.06641,0.99609c0.662,0 1.06641,-0.38109 1.06641,-0.99609c0,-0.621 -0.40441,-1.00195 -1.06641,-1.00195zM9.04883,35h31.90234c-3.35929,5.34694 -9.16302,9 -15.95117,9c-6.78815,0 -12.59188,-3.65306 -15.95117,-9z"></path></g></g></svg>