<svg version="1.1" xmlns="http://www.w3.org/2000/svg" xmlns:xlink="http://www.w3.org/1999/xlink" width="40px" height="40px" viewBox="0,0,256,256"><g fill="#000000" fill-rule="nonzero" stroke="none" stroke-width="1" stroke-linecap="butt" stroke-linejoin="miter" stroke-miterlimit="10" stroke-dasharray="" stroke-dashoffset="0" font-family="none" font-weight="none" font-size="none" text-anchor="none" style="mix-blend-mode: normal"><g transform="scale(5.12,5.12)"><path d="M4.8125,9c-0.47656,0.08984 -0.82031,0.51172 -0.8125,1c0,1.65625 -1.34375,3 -3,3c-0.55078,0 -1,0.44922 -1,1v22c0,0.55078 0.44922,1 1,1c1.65625,0 3,1.34375 3,3c0,0.55078 0.44922,1 1,1h40c0.55078,0 1,-0.44922 1,-1c0,-1.65625 1.34375,-3 3,-3c0.55078,0 1,-0.44922 1,-1v-22c0,-0.55078 -0.44922,-1 -1,-1c-1.65625,0 -3,-1.34375 -3,-3c0,-0.55078 -0.44922,-1 -1,-1h-40c-0.03125,0 -0.0625,0 -0.09375,0c-0.03125,0 -0.0625,0 -0.09375,0zM5.78125,11h38.4375c0.41016,1.91797 1.86328,3.37109 3.78125,3.78125v20.4375c-1.91797,0.41016 -3.37109,1.86328 -3.78125,3.78125h-38.4375c-0.41016,-1.91797 -1.86328,-3.37109 -3.78125,-3.78125v-20.4375c1.91797,-0.41016 3.37109,-1.86328 3.78125,-3.78125zM10,20v2h30v-2zM10,28v2h30v-2z"></path></g></g></svg>