<svg version="1.1" xmlns="http://www.w3.org/2000/svg" xmlns:xlink="http://www.w3.org/1999/xlink" width="40px" height="40px" viewBox="0,0,256,256"><g fill="#000000" fill-rule="nonzero" stroke="none" stroke-width="1" stroke-linecap="butt" stroke-linejoin="miter" stroke-miterlimit="10" stroke-dasharray="" stroke-dashoffset="0" font-family="none" font-weight="none" font-size="none" text-anchor="none" style="mix-blend-mode: normal"><g transform="scale(5.12,5.12)"><path d="M42.46875,1c-1.67187,0 -3.32422,0.63672 -4.59375,1.90625l-6.5625,6.53125l-0.15625,-0.15625c-0.42969,-0.42969 -0.99219,-0.625 -1.5625,-0.625c-0.57031,0 -1.16406,0.19531 -1.59375,0.625l-2.59375,2.625c-0.86328,0.86328 -0.86328,2.29297 0,3.15625l1.03125,1l-18.0625,18.0625c-1.33984,1.33984 -2.12109,2.33594 -2.59375,3.1875c-0.47266,0.85156 -0.60937,1.58203 -0.71875,2.125c-0.10937,0.54297 -0.19141,0.91406 -0.53125,1.53125c-0.33984,0.61719 -0.98828,1.45703 -2.25,2.71875c-0.38672,0.39063 -0.38672,1.01563 0,1.40625l2.625,2.625c0.39063,0.38672 1.01563,0.38672 1.40625,0c1.26172,-1.26172 2.10547,-1.91016 2.71875,-2.25c0.61328,-0.33984 0.98828,-0.42187 1.53125,-0.53125c0.54297,-0.10937 1.27344,-0.24609 2.125,-0.71875c0.85156,-0.47266 1.84766,-1.25391 3.1875,-2.59375l18.0625,-18.0625l1,1.03125c0.86328,0.86328 2.29297,0.86328 3.15625,0l2.625,-2.59375c0.86328,-0.86328 0.85938,-2.29297 0,-3.15625l-0.15625,-0.15625l6.53125,-6.5625c2.53906,-2.53906 2.53906,-6.67969 0,-9.21875c-1.26953,-1.26953 -2.95312,-1.90625 -4.625,-1.90625zM42.5,2.96875c1.15625,0 2.30078,0.45703 3.1875,1.34375c1.77344,1.77734 1.77344,4.63281 0,6.40625l-6.5625,6.53125l-6.375,-6.375l6.53125,-6.5625c0.88672,-0.88672 2.0625,-1.34375 3.21875,-1.34375zM29.59375,10.65625c0.0625,0 0.10938,0.01563 0.15625,0.0625l9.53125,9.53125c0.09766,0.09766 0.09766,0.24609 0,0.34375l-2.59375,2.59375c-0.09766,0.09766 -0.21484,0.09766 -0.3125,0l-1.5625,-1.53125c-0.08594,-0.14062 -0.20312,-0.25781 -0.34375,-0.34375l-5.6875,-5.71875c-0.09766,-0.1875 -0.25,-0.33984 -0.4375,-0.4375l-1.53125,-1.53125c-0.09766,-0.09766 -0.09766,-0.21484 0,-0.3125l2.59375,-2.59375c0.04688,-0.04687 0.125,-0.0625 0.1875,-0.0625zM27.84375,17.5l4.65625,4.65625l-18.0625,18.0625c-1.26172,1.26172 -2.10156,1.90625 -2.71875,2.25c-0.61719,0.34375 -0.98828,0.39063 -1.53125,0.5c-0.54297,0.10938 -1.27344,0.27734 -2.125,0.75c-0.64062,0.35547 -1.48437,1.125 -2.375,1.9375l-1.34375,-1.34375c0.8125,-0.89062 1.58203,-1.73437 1.9375,-2.375c0.47266,-0.85156 0.64063,-1.58203 0.75,-2.125c0.10938,-0.54297 0.16016,-0.91797 0.5,-1.53125c0.33984,-0.61328 0.98828,-1.45703 2.25,-2.71875z"></path></g></g></svg>