<svg version="1.1" xmlns="http://www.w3.org/2000/svg" xmlns:xlink="http://www.w3.org/1999/xlink" width="40px" height="40px" viewBox="0,0,256,256"><g fill="#000000" fill-rule="nonzero" stroke="none" stroke-width="1" stroke-linecap="butt" stroke-linejoin="miter" stroke-miterlimit="10" stroke-dasharray="" stroke-dashoffset="0" font-family="none" font-weight="none" font-size="none" text-anchor="none" style="mix-blend-mode: normal"><g transform="scale(8.53333,8.53333)"><path d="M6,4c-1.09306,0 -2,0.90694 -2,2v18c0,1.09306 0.90694,2 2,2h18c1.09306,0 2,-0.90694 2,-2v-18c0,-1.09306 -0.90694,-2 -2,-2zM6,6h18v18h-18zM9,8c-0.552,0 -1,0.448 -1,1v4c0,0.552 0.448,1 1,1h4c0.552,0 1,-0.448 1,-1v-4c0,-0.552 -0.448,-1 -1,-1zM17,8c-0.552,0 -1,0.448 -1,1v4c0,0.552 0.448,1 1,1h4c0.552,0 1,-0.448 1,-1v-4c0,-0.552 -0.448,-1 -1,-1zM9,16c-0.552,0 -1,0.448 -1,1v4c0,0.552 0.448,1 1,1h4c0.552,0 1,-0.448 1,-1v-4c0,-0.552 -0.448,-1 -1,-1zM17,16c-0.552,0 -1,0.448 -1,1v4c0,0.552 0.448,1 1,1h4c0.552,0 1,-0.448 1,-1v-4c0,-0.552 -0.448,-1 -1,-1z"></path></g></g></svg>