<svg version="1.1" xmlns="http://www.w3.org/2000/svg" xmlns:xlink="http://www.w3.org/1999/xlink" width="40px" height="40px" viewBox="0,0,256,256"><g fill="#000000" fill-rule="nonzero" stroke="none" stroke-width="1" stroke-linecap="butt" stroke-linejoin="miter" stroke-miterlimit="10" stroke-dasharray="" stroke-dashoffset="0" font-family="none" font-weight="none" font-size="none" text-anchor="none" style="mix-blend-mode: normal"><g transform="scale(3.2,3.2)"><path d="M15,9v48h-6v7c0,3.85547 3.14453,7 7,7h42c3.85547,0 7,-3.14453 7,-7v-55zM17,11h46v53c0,2.77344 -2.22656,5 -5,5c-2.77344,0 -5,-2.22656 -5,-5v-7h-36zM28,22.5c-0.82812,0 -1.5,0.67188 -1.5,1.5c0,0.82813 0.67188,1.5 1.5,1.5c0.82813,0 1.5,-0.67187 1.5,-1.5c0,-0.82812 -0.67187,-1.5 -1.5,-1.5zM33,23v2h20v-2zM28,30.5c-0.82812,0 -1.5,0.67188 -1.5,1.5c0,0.82813 0.67188,1.5 1.5,1.5c0.82813,0 1.5,-0.67187 1.5,-1.5c0,-0.82812 -0.67187,-1.5 -1.5,-1.5zM33,31v2h20v-2zM28,38.5c-0.82812,0 -1.5,0.67188 -1.5,1.5c0,0.82813 0.67188,1.5 1.5,1.5c0.82813,0 1.5,-0.67187 1.5,-1.5c0,-0.82812 -0.67187,-1.5 -1.5,-1.5zM33,39v2h20v-2zM28,46.5c-0.82812,0 -1.5,0.67188 -1.5,1.5c0,0.82813 0.67188,1.5 1.5,1.5c0.82813,0 1.5,-0.67187 1.5,-1.5c0,-0.82812 -0.67187,-1.5 -1.5,-1.5zM33,47v2h20v-2zM11,59h40v5c0,1.96094 0.82422,3.72656 2.13672,5h-37.13672c-2.77344,0 -5,-2.22656 -5,-5zM13,61c-0.55078,0 -1,0.44922 -1,1c0,0.55078 0.44922,1 1,1c0.55078,0 1,-0.44922 1,-1c0,-0.55078 -0.44922,-1 -1,-1zM17,61c-0.55078,0 -1,0.44922 -1,1c0,0.55078 0.44922,1 1,1c0.55078,0 1,-0.44922 1,-1c0,-0.55078 -0.44922,-1 -1,-1zM21,61c-0.55078,0 -1,0.44922 -1,1c0,0.55078 0.44922,1 1,1c0.55078,0 1,-0.44922 1,-1c0,-0.55078 -0.44922,-1 -1,-1zM25,61c-0.55078,0 -1,0.44922 -1,1c0,0.55078 0.44922,1 1,1c0.55078,0 1,-0.44922 1,-1c0,-0.55078 -0.44922,-1 -1,-1zM29,61c-0.55078,0 -1,0.44922 -1,1c0,0.55078 0.44922,1 1,1c0.55078,0 1,-0.44922 1,-1c0,-0.55078 -0.44922,-1 -1,-1zM33,61c-0.55078,0 -1,0.44922 -1,1c0,0.55078 0.44922,1 1,1c0.55078,0 1,-0.44922 1,-1c0,-0.55078 -0.44922,-1 -1,-1zM37,61c-0.55078,0 -1,0.44922 -1,1c0,0.55078 0.44922,1 1,1c0.55078,0 1,-0.44922 1,-1c0,-0.55078 -0.44922,-1 -1,-1zM41,61c-0.55078,0 -1,0.44922 -1,1c0,0.55078 0.44922,1 1,1c0.55078,0 1,-0.44922 1,-1c0,-0.55078 -0.44922,-1 -1,-1zM45,61c-0.55078,0 -1,0.44922 -1,1c0,0.55078 0.44922,1 1,1c0.55078,0 1,-0.44922 1,-1c0,-0.55078 -0.44922,-1 -1,-1zM49,61c-0.55078,0 -1,0.44922 -1,1c0,0.55078 0.44922,1 1,1c0.55078,0 1,-0.44922 1,-1c0,-0.55078 -0.44922,-1 -1,-1z"></path></g></g></svg>