<svg version="1.1" xmlns="http://www.w3.org/2000/svg" xmlns:xlink="http://www.w3.org/1999/xlink" width="40px" height="40px" viewBox="0,0,256,256"><g fill="#000000" fill-rule="nonzero" stroke="none" stroke-width="1" stroke-linecap="butt" stroke-linejoin="miter" stroke-miterlimit="10" stroke-dasharray="" stroke-dashoffset="0" font-family="none" font-weight="none" font-size="none" text-anchor="none" style="mix-blend-mode: normal"><g transform="scale(5.12,5.12)"><path d="M7,2v46h36v-1v-32.41406l-12.58594,-12.58594zM9,4h20v12h12v30h-32zM31,5.41406l8.58594,8.58594h-8.58594zM36,23c-1.10457,0 -2,0.89543 -2,2c0.00002,0.24858 0.04639,0.49498 0.13672,0.72656l-5.83789,7.29883c-0.09883,-0.01593 -0.19872,-0.02442 -0.29883,-0.02539c-0.13522,0.00068 -0.27003,0.01508 -0.40234,0.04297l-5.70117,-6.41406c0.0679,-0.20275 0.10285,-0.41508 0.10352,-0.62891c0,-1.10457 -0.89543,-2 -2,-2c-1.10457,0 -2,0.89543 -2,2c0.00007,0.17477 0.02306,0.34878 0.06836,0.51758l-3.55273,3.55273c-0.16808,-0.04579 -0.34142,-0.06943 -0.51562,-0.07031c-1.10457,0 -2,0.89543 -2,2c0,1.10457 0.89543,2 2,2c1.10457,0 2,-0.89543 2,-2c-0.00007,-0.17477 -0.02306,-0.34878 -0.06836,-0.51758l3.55273,-3.55273c0.16808,0.04579 0.34142,0.06943 0.51563,0.07031c0.13522,-0.00068 0.27003,-0.01508 0.40234,-0.04297l5.70117,6.41406c-0.0679,0.20275 -0.10285,0.41508 -0.10352,0.62891c0,1.10457 0.89543,2 2,2c1.10457,0 2,-0.89543 2,-2c-0.00002,-0.24858 -0.04639,-0.49498 -0.13672,-0.72656l5.83789,-7.29883c0.09883,0.01593 0.19872,0.02442 0.29883,0.02539c1.10457,0 2,-0.89543 2,-2c0,-1.10457 -0.89543,-2 -2,-2z"></path></g></g></svg>