<svg version="1.1" xmlns="http://www.w3.org/2000/svg" xmlns:xlink="http://www.w3.org/1999/xlink" width="25px" height="25px" viewBox="0,0,256,256"><g fill="#000000" fill-rule="nonzero" stroke="none" stroke-width="1" stroke-linecap="butt" stroke-linejoin="miter" stroke-miterlimit="10" stroke-dasharray="" stroke-dashoffset="0" font-family="none" font-weight="none" font-size="none" text-anchor="none" style="mix-blend-mode: normal"><g transform="scale(4,4)"><path d="M7,18c-1.10457,0 -2,0.89543 -2,2v5c0.00191,0.71156 0.38305,1.36813 1,1.72266v3.34766c0.00323,2.27424 -0.45317,4.52569 -1.3418,6.61914c-0.21574,0.50914 0.02211,1.09676 0.53125,1.3125c0.50914,0.21574 1.09676,-0.02211 1.3125,-0.53125c0.99281,-2.34068 1.50236,-4.85786 1.49805,-7.40039v-3.07031h3v4.07031c0.00368,2.44677 -0.51993,4.86559 -1.53516,7.0918c-2.12271,4.69139 -2.26494,10.04033 -0.39453,14.83789h-2.42187l-0.42383,-0.95312c-1.52818,-3.44257 -1.87962,-7.29272 -1,-10.95508c0.11156,-0.53051 -0.21984,-1.05332 -0.74723,-1.17881c-0.52739,-0.12549 -1.05874,0.19202 -1.19808,0.71592c-0.97878,4.08807 -0.58482,8.38466 1.12109,12.22656l0.24219,0.54492l-1.95508,0.65234c-0.40932,0.13465 -0.68636,0.51637 -0.6875,0.94727v2.51367c0.00312,2.47644 2.00989,4.4832 4.48633,4.48633h1.51367c0.55228,0 1,-0.44772 1,-1c0,-0.55228 0.44772,-1 1,-1c0.55228,0 1,0.44772 1,1c0,0.55228 0.44772,1 1,1h4c0.55228,0 1,-0.44772 1,-1c0,-0.55228 0.44772,-1 1,-1c0.55228,0 1,0.44772 1,1c0,0.55228 0.44772,1 1,1h4c0.55228,0 1,-0.44772 1,-1c0,-0.55228 0.44772,-1 1,-1c0.51544,0.00071 0.94428,0.39643 0.98633,0.91016c0.04962,0.55013 0.53581,0.95587 1.08594,0.90625c0.55013,-0.04962 0.95587,-0.53581 0.90625,-1.08594c-0.12397,-1.40394 -1.21032,-2.53132 -2.6087,-2.70724c-1.39838,-0.17591 -2.73011,0.64728 -3.19794,1.97677h-2.34375c-0.42403,-1.1982 -1.55711,-1.99915 -2.82812,-1.99915c-1.27102,0 -2.40409,0.80095 -2.82812,1.99915h-2.34375c-0.42403,-1.1982 -1.55711,-1.99915 -2.82812,-1.99915c-1.27102,0 -2.40409,0.80095 -2.82813,1.99915h-0.68555c-1.37255,-0.00147 -2.48486,-1.11378 -2.48633,-2.48633v-1.79297l2.16016,-0.7207h21.28906c2.29564,-0.00053 4.58561,0.22781 6.83594,0.68164c2.37158,0.47023 4.78342,0.70768 7.20117,0.70898c1.20939,-0.00067 2.41797,-0.06259 3.62109,-0.18555c0.54959,-0.05663 0.94921,-0.54807 0.89258,-1.09766c-0.05663,-0.54959 -0.54807,-0.94921 -1.09766,-0.89258c-3.41481,0.3405 -6.86126,0.17199 -10.22656,-0.5c-2.37909,-0.47796 -4.79993,-0.71743 -7.22656,-0.71484h-15.44922l0.30078,-0.40039c0.7577,-1.00402 1.94138,-1.59586 3.19922,-1.59961h13.19922c2.13328,0.00026 4.26225,0.19178 6.36133,0.57227c5.25142,0.96259 10.64823,0.78743 15.82617,-0.51367l0.72266,-0.18164c0.96154,-0.24763 1.9511,0.28934 2.26758,1.23047c-1.66774,0.63996 -3.38249,1.14994 -5.12891,1.52539c-0.54042,0.11488 -0.88539,0.6461 -0.77051,1.18652c0.11488,0.54042 0.6461,0.88539 1.18652,0.77051c2.72746,-0.57918 5.37954,-1.4691 7.9043,-2.65234c1.06156,-0.49783 2.00904,-1.20927 2.7832,-2.08984c-0.30303,1.60181 -1.08885,3.07257 -2.25195,4.21484c-1.48916,-0.30754 -2.97141,0.55388 -3.44141,2c-0.732,0.221 -1.49253,0.42714 -2.26953,0.61914c-0.53095,-0.44025 -1.19894,-0.68134 -1.88867,-0.68164c-1.08895,0.00457 -2.08991,0.59887 -2.61523,1.55273c-1.059,0.148 -2.15081,0.25898 -3.25781,0.33398c-0.57962,-0.58721 -1.3765,-0.90821 -2.20131,-0.88675c-0.82481,0.02146 -1.60392,0.38348 -2.15221,1.00003h-4.77344c-0.10762,0.00044 -0.21446,0.01824 -0.31641,0.05273l-3,1c-0.50535,0.18834 -0.77071,0.74311 -0.60017,1.25474c0.17054,0.51163 0.7157,0.79624 1.23298,0.64369l2.8457,-0.95117h5.11523c0.35698,-0.00028 0.68674,-0.19084 0.86523,-0.5c0.18269,-0.28818 0.49704,-0.4663 0.83814,-0.47493c0.3411,-0.00863 0.66405,0.15338 0.86108,0.43196c0.19601,0.30307 0.54013,0.47699 0.90039,0.45508c1.537,-0.087 3.052,-0.24475 4.5,-0.46875c0.38728,-0.0595 0.70413,-0.3397 0.81055,-0.7168c0.09792,-0.36356 0.39453,-0.6395 0.76421,-0.71094c0.36968,-0.07144 0.74774,0.07411 0.97408,0.37501c0.23943,0.30896 0.63692,0.45011 1.01758,0.36133c1.079,-0.252 2.13372,-0.53575 3.13672,-0.84375c0.107,-0.033 0.21045,-0.06942 0.31445,-0.10742l0.09961,-0.03711c0.36784,-0.13119 0.62564,-0.46451 0.66016,-0.85352c0.02527,-0.32407 0.20849,-0.61491 0.48986,-0.77765c0.28138,-0.16274 0.62484,-0.1765 0.91834,-0.0368c0.35577,0.16635 0.77598,0.10905 1.07422,-0.14648c2.22248,-1.89902 3.50156,-4.6763 3.5,-7.59961v-6.42969c0.00492,-2.13892 -0.8469,-4.19073 -2.36523,-5.69727c-2.07114,-2.06083 -5.09396,-2.84212 -7.9043,-2.04297c-1.55874,0.44663 -3.18258,0.62236 -4.80078,0.51953c-0.11002,-0.37573 -0.43472,-0.64878 -0.82375,-0.69272c-0.38903,-0.04394 -0.76645,0.14982 -0.9575,0.49155c-0.4,-0.06667 -0.79426,-0.14995 -1.18359,-0.25195c0.11506,-0.46094 -0.11008,-0.9392 -0.53863,-1.14425c-0.42856,-0.20504 -0.94222,-0.08026 -1.22894,0.29855l-0.17187,0.23242c-0.52266,-0.21112 -1.03379,-0.44973 -1.53125,-0.71484l0.21094,-0.21094c0.38079,-0.3921 0.37621,-1.0173 -0.01028,-1.40379c-0.38649,-0.38649 -1.01168,-0.39106 -1.40379,-0.01028l-0.55078,0.55078c-0.436,-0.308 -0.86158,-0.63142 -1.26758,-0.98242c0.44241,-0.23584 0.63805,-0.76565 0.45508,-1.23242c-0.0982,-0.24675 -0.29052,-0.4443 -0.53454,-0.54908c-0.24402,-0.10479 -0.5197,-0.10821 -0.76625,-0.00951l-0.67187,0.26953c-0.63759,-0.72987 -1.20641,-1.51707 -1.69922,-2.35156l0.18945,-0.09375c0.47954,-0.25465 0.66842,-0.84533 0.4256,-1.33096c-0.24282,-0.48564 -0.82869,-0.68894 -1.32013,-0.4581l-0.21289,0.10742c-0.28951,-0.67771 -0.53163,-1.3747 -0.72461,-2.08594l0.62695,-0.15625c0.5361,-0.13376 0.86227,-0.67679 0.72852,-1.21289c-0.13376,-0.5361 -0.67679,-0.86227 -1.21289,-0.72852l-0.55859,0.14063c-0.057,-0.4 -0.10581,-0.79922 -0.13281,-1.19922l-0.06641,-1.03711c-0.03502,-0.5262 -0.47264,-0.93476 -1,-0.93359h-2c-0.55228,0 -1,0.44772 -1,1c0,0.55228 0.44772,1 1,1h1.06445l0.00781,0.10547c0.03467,0.522 0.09121,1.04007 0.17188,1.55273l-1.48633,0.37109c-0.49102,0.12154 -0.81396,0.59062 -0.75226,1.09268c0.0617,0.50207 0.4886,0.87899 0.99445,0.87802c0.08226,0.00007 0.16423,-0.00977 0.24414,-0.0293l1.43359,-0.35937c0.22829,0.85368 0.51945,1.6893 0.87109,2.5l-1.99414,1c-0.47147,0.25827 -0.65455,0.84298 -0.41455,1.32401c0.23999,0.48104 0.81724,0.68641 1.30713,0.46505l2.01953,-1.00977c0.45122,0.78461 0.96183,1.53355 1.52734,2.24023l-2.36523,0.94531c-0.51345,0.20549 -0.76311,0.78831 -0.55762,1.30176c0.20549,0.51345 0.78831,0.76311 1.30176,0.55762l3.07422,-1.23047c0.58127,0.56754 1.20054,1.0948 1.85352,1.57813l-2.01172,2.00977c-0.25879,0.25133 -0.36215,0.62257 -0.27048,0.97148c0.09167,0.34891 0.36416,0.6214 0.71307,0.71307c0.34891,0.09167 0.72014,-0.01169 0.97148,-0.27048l2.32227,-2.32031c0.57303,0.32683 1.16378,0.62156 1.76953,0.88281l-1.5957,2.13086c-0.33115,0.44226 -0.24109,1.06924 0.20117,1.40039c0.44226,0.33115 1.06924,0.24109 1.40039,-0.20117l1.95117,-2.59961c0.61136,0.17958 1.23208,0.32563 1.85938,0.4375l-0.58203,2.32227c-0.06436,0.25745 -0.02375,0.52993 0.1129,0.75742c0.13664,0.22749 0.35811,0.39134 0.61562,0.45547c0.07934,0.01879 0.16065,0.02797 0.24219,0.02734c0.45845,-0.00068 0.85772,-0.31301 0.96875,-0.75781l0.64063,-2.5625c1.90918,0.1448 3.8289,-0.05028 5.66992,-0.57617c1.82635,-0.52388 3.79271,-0.15967 5.31026,0.98359c1.51756,1.14325 2.41013,2.93282 2.41044,4.83282v2.2793c0.00189,2.54109 -1.47007,4.85264 -3.77344,5.92578c-0.166,0.078 -0.33786,0.14375 -0.50586,0.21875c-0.68558,-1.86124 -2.66907,-2.9011 -4.58984,-2.40625l-0.72461,0.17969c-4.90221,1.23379 -10.01224,1.40031 -14.98437,0.48828c-2.21823,-0.40273 -4.46816,-0.60536 -6.72266,-0.60547h-13.19922c-0.50645,0.00217 -1.01054,0.06912 -1.5,0.19922v-4.11328c0.00074,-0.4673 0.16443,-0.91972 0.46289,-1.2793l3.40625,-4.08594c0.37949,-0.45604 0.94187,-0.72006 1.53516,-0.7207h3.13672c0.95146,0.00372 1.76956,0.675 1.95898,1.60742l0.125,0.62695c0.31427,1.58519 1.55348,2.8244 3.13867,3.13867l6.33594,1.26563c0.70158,0.14381 1.27328,0.65075 1.5,1.33008c0.17475,0.52478 0.74182,0.80854 1.2666,0.63379c0.52478,-0.17475 0.80854,-0.74182 0.63379,-1.2666c-0.45539,-1.36075 -1.60317,-2.37446 -3.00977,-2.6582l-6.33203,-1.26562c-0.79134,-0.15847 -1.40989,-0.77702 -1.56836,-1.56836l-0.125,-0.62695c-0.37743,-1.86841 -2.01768,-3.21311 -3.92383,-3.2168h-3.13672c-1.18734,-0.00158 -2.3136,0.52611 -3.07227,1.43945l-3.4043,4.08594c-0.59864,0.71907 -0.92684,1.62491 -0.92773,2.56055v5.05664c-0.49483,0.35092 -0.93344,0.77504 -1.30078,1.25781l-0.06641,0.0918c-1.36577,-4.0998 -1.13348,-8.56408 0.65039,-12.5c1.13543,-2.48639 1.72102,-5.1885 1.7168,-7.92188v-4.07031h9.45703c1.17514,-0.00072 2.29052,-0.51815 3.04999,-1.41491c0.75946,-0.89676 1.08617,-2.08212 0.89337,-3.24134l-0.41797,-2.50781c-0.07997,-0.48084 -0.49498,-0.83397 -0.98242,-0.83594h-11.88281c-0.57962,-0.00093 -1.15117,-0.13597 -1.66992,-0.39453c-0.79653,-0.39733 -1.67433,-0.60458 -2.56445,-0.60547zM7,20h1.88281c0.57962,0.00093 1.15117,0.13597 1.66992,0.39453c0.79653,0.39733 1.67433,0.60458 2.56445,0.60547h11.03516l0.2793,1.67188c0.09648,0.58012 -0.06724,1.17329 -0.44763,1.62179c-0.38039,0.44849 -0.93889,0.70684 -1.52698,0.70634h-15.45703zM16,29c-0.55228,0 -1,0.44772 -1,1c0,0.55228 0.44772,1 1,1c0.55228,0 1,-0.44772 1,-1c0,-0.55228 -0.44772,-1 -1,-1zM21,29c-0.55228,0 -1,0.44772 -1,1c0,0.55228 0.44772,1 1,1c0.55228,0 1,-0.44772 1,-1c0,-0.55228 -0.44772,-1 -1,-1zM20,41c-0.55228,0 -1,0.44772 -1,1c0,0.55228 0.44772,1 1,1c0.55228,0 1,-0.44772 1,-1c0,-0.55228 -0.44772,-1 -1,-1zM17,45c-0.55228,0 -1,0.44772 -1,1c0,0.55228 0.44772,1 1,1c0.55228,0 1,-0.44772 1,-1c0,-0.55228 -0.44772,-1 -1,-1zM41,46c-0.55228,0 -1,0.44772 -1,1c0,0.55228 0.44772,1 1,1c0.55228,0 1,-0.44772 1,-1c0,-0.55228 -0.44772,-1 -1,-1zM46,46c-0.55228,0 -1,0.44772 -1,1c0,0.55228 0.44772,1 1,1c0.55228,0 1,-0.44772 1,-1c0,-0.55228 -0.44772,-1 -1,-1z"></path></g></g></svg>