<svg version="1.1" xmlns="http://www.w3.org/2000/svg" xmlns:xlink="http://www.w3.org/1999/xlink" width="40px" height="40px" viewBox="0,0,256,256"><g fill="#000000" fill-rule="nonzero" stroke="none" stroke-width="1" stroke-linecap="butt" stroke-linejoin="miter" stroke-miterlimit="10" stroke-dasharray="" stroke-dashoffset="0" font-family="none" font-weight="none" font-size="none" text-anchor="none" style="mix-blend-mode: normal"><g transform="scale(5.12,5.12)"><path d="M14.26563,1.06641c-3.66147,0.0934 -6.40048,2.69836 -8.16797,5.83789c-1.88532,3.34883 -2.84235,7.39808 -3.04297,10.47266c-0.396,6.06679 1.39807,10.27349 2.16992,16.41992c0.08328,0.663 0.15712,1.41037 0.23633,2.15234c-0.00012,0.00261 0.00011,0.0052 0,0.00781c-0.00614,0.11338 0.00706,0.22699 0.03906,0.33594c0.17083,1.62754 0.31376,3.09788 0.31445,3.10547c0.07175,0.86974 0.25196,2.95266 1.36523,4.90625c1.11328,1.95358 3.30494,3.74655 6.86523,3.81055c1.45491,0.02632 3.25835,-0.47423 4.73633,-1.96484c1.47798,-1.49062 2.57502,-3.91114 2.8125,-7.55664c0.16192,-2.48819 0.05634,-4.25483 0.33008,-8.44922c0.20236,-3.10695 0.58948,-4.65279 0.99609,-6.24023c0.40661,-1.58745 0.83577,-3.2317 1.0293,-6.20117c0.20305,-3.11701 -0.17472,-7.0013 -1.49219,-10.28906c-1.31747,-3.28776 -3.73841,-6.08706 -7.44726,-6.33203c-0.25229,-0.01668 -0.50004,-0.02185 -0.74414,-0.01562zM35.73438,1.06641c-0.2441,-0.00623 -0.49185,-0.00106 -0.74414,0.01563c-3.70885,0.24497 -6.1298,3.04427 -7.44727,6.33203c-1.31747,3.28776 -1.69524,7.17205 -1.49219,10.28906c0.19353,2.96996 0.62268,4.61384 1.0293,6.20117c0.40662,1.58733 0.79373,3.13328 0.99609,6.24023c0.27374,4.19439 0.16816,5.96103 0.33008,8.44922c0.23748,3.64551 1.33451,6.06617 2.8125,7.55664c1.47799,1.49047 3.28175,1.99056 4.73633,1.96484c3.56035,-0.06345 5.75196,-1.85682 6.86523,-3.81055c1.11328,-1.95372 1.29348,-4.03652 1.36523,-4.90625c0.00072,-0.00758 0.14393,-1.47446 0.31445,-3.09961c0.03267,-0.11082 0.04588,-0.22646 0.03906,-0.3418c-0.00011,-0.00261 0.00012,-0.0052 0,-0.00781c0.07921,-0.74195 0.15306,-1.48967 0.23633,-2.15234c0.77187,-6.14654 2.56487,-10.35137 2.16992,-16.41797c0,-0.00065 0,-0.0013 0,-0.00195c-0.20062,-3.07453 -1.15765,-7.12383 -3.04297,-10.47266c-1.76749,-3.13953 -4.5065,-5.74449 -8.16797,-5.83789zM14.30859,3.06641c0.18654,-0.00433 0.37546,-0.00104 0.56836,0.01172c2.78615,0.18403 4.56238,2.18459 5.72266,5.08008c0.10906,0.27215 0.20338,0.55711 0.29883,0.8418h-13.62891c0.18045,-0.38113 0.36999,-0.75399 0.57227,-1.11328c1.57845,-2.80375 3.66866,-4.75538 6.4668,-4.82031zM35.69141,3.06641c2.79814,0.06494 4.88834,2.01656 6.4668,4.82031c0.20227,0.35929 0.39182,0.73215 0.57227,1.11328h-13.62891c0.09545,-0.28469 0.18977,-0.56964 0.29883,-0.8418c1.16028,-2.89549 2.93651,-4.89605 5.72266,-5.08008c0.1929,-0.01276 0.38182,-0.01605 0.56836,-0.01172zM6.49414,10.88477l4.4375,3.85938c0.00516,0.00461 0.01037,0.00917 0.01563,0.01367c0.6824,0.56904 1.18805,1.28764 1.53906,2.08008c-0.56776,0.05767 -1.14164,0.06264 -1.70117,0.18555c-0.35485,0.07095 -0.6437,0.32807 -0.75528,0.67232c-0.11158,0.34425 -0.02849,0.72192 0.21726,0.98755c0.24576,0.26563 0.61584,0.37778 0.96771,0.29326c0.56352,-0.12378 1.13653,-0.1398 1.70703,-0.1875c0.00792,0.12254 0.07813,0.22985 0.07813,0.35352v1.63867c-0.74212,0.04927 -1.48634,0.08216 -2.21484,0.24219c-0.35485,0.07095 -0.6437,0.32807 -0.75528,0.67232c-0.11158,0.34425 -0.02849,0.72192 0.21726,0.98755c0.24576,0.26563 0.61584,0.37778 0.96771,0.29326c0.58929,-0.12944 1.18818,-0.1491 1.78516,-0.19531v2c-0.74212,0.04927 -1.48634,0.08216 -2.21484,0.24219c-0.35485,0.07095 -0.6437,0.32807 -0.75528,0.67232c-0.11158,0.34425 -0.02849,0.72192 0.21726,0.98755c0.24576,0.26563 0.61584,0.37778 0.96771,0.29326c0.58929,-0.12944 1.18818,-0.1491 1.78516,-0.19531v2.30469c-2.47726,0.13935 -4.64375,1.26301 -6.01367,2.94531c-0.85774,-5.53983 -2.27132,-9.3793 -1.93555,-14.52344c0.1241,-1.90182 0.60926,-4.32219 1.44336,-6.62305zM43.50586,10.88477c0.83409,2.30086 1.31926,4.72123 1.44336,6.62305c0.3349,5.14431 -1.07794,8.98371 -1.93555,14.52344c-1.36992,-1.6823 -3.53641,-2.80597 -6.01367,-2.94531v-2.30469c0.59698,0.04621 1.19587,0.06587 1.78516,0.19531c0.35187,0.08453 0.72195,-0.02763 0.96771,-0.29326c0.24576,-0.26563 0.32884,-0.6433 0.21726,-0.98755c-0.11158,-0.34425 -0.40043,-0.60136 -0.75528,-0.67232c-0.7285,-0.16002 -1.47273,-0.19292 -2.21484,-0.24219v-2c0.59698,0.04621 1.19587,0.06587 1.78516,0.19531c0.35187,0.08453 0.72195,-0.02763 0.96771,-0.29326c0.24576,-0.26563 0.32884,-0.6433 0.21726,-0.98755c-0.11158,-0.34425 -0.40043,-0.60136 -0.75528,-0.67232c-0.7285,-0.16002 -1.47273,-0.19292 -2.21484,-0.24219v-1.63867c0,-0.12367 0.07019,-0.23098 0.07813,-0.35352c0.5705,0.0477 1.14351,0.06372 1.70703,0.1875c0.35187,0.08453 0.72195,-0.02763 0.96771,-0.29326c0.24576,-0.26563 0.32884,-0.6433 0.21726,-0.98755c-0.11158,-0.34425 -0.40043,-0.60136 -0.75528,-0.67232c-0.55953,-0.12291 -1.13341,-0.12787 -1.70117,-0.18555c0.35102,-0.79244 0.85666,-1.51104 1.53906,-2.08008c0.00526,-0.0045 0.01046,-0.00906 0.01563,-0.01367zM9.67383,11h9.20312l-3.04492,2.17578c-0.02008,0.01425 -0.03962,0.02923 -0.05859,0.04492c-0.76161,0.63509 -1.31265,1.44836 -1.77344,2.30078c-0.46079,-0.85242 -1.01183,-1.66569 -1.77344,-2.30078zM31.12305,11h9.20313l-2.55273,2.2207c-0.7616,0.63509 -1.31265,1.44836 -1.77344,2.30078c-0.46079,-0.85242 -1.01183,-1.66569 -1.77344,-2.30078c-0.01897,-0.01569 -0.03852,-0.03067 -0.05859,-0.04492zM21.5625,11.54297c0.3968,2.07212 0.51044,4.22199 0.39258,6.03125c-0.18447,2.83053 -0.56352,4.23668 -0.97266,5.83398c-0.40914,1.5973 -0.84405,3.37142 -1.05469,6.60547c-0.04039,0.61893 -0.05963,1.09218 -0.08594,1.61719c-0.21764,-0.25841 -0.44544,-0.50531 -0.69727,-0.72461c-1.13857,-0.99149 -2.60317,-1.45408 -4.14453,-1.67969v-2.43945c0.59425,0.04657 1.18385,0.06215 1.79102,0.19141c0.34963,0.07477 0.71259,-0.04271 0.95211,-0.30816c0.23952,-0.26545 0.3192,-0.63853 0.20902,-0.97866c-0.11018,-0.34013 -0.39348,-0.59563 -0.74315,-0.67022c-0.74164,-0.15789 -1.47502,-0.18469 -2.20898,-0.23437v-2c0.59425,0.04657 1.18385,0.06215 1.79102,0.19141c0.34963,0.07477 0.71259,-0.04271 0.95211,-0.30816c0.23952,-0.26545 0.3192,-0.63853 0.20902,-0.97866c-0.11018,-0.34013 -0.39348,-0.59563 -0.74315,-0.67022c-0.74164,-0.15789 -1.47502,-0.18469 -2.20898,-0.23437v-1.64453c0,-0.12171 0.07044,-0.22704 0.07813,-0.34766c0.56884,0.04796 1.13218,0.05997 1.71289,0.18359c0.34963,0.07477 0.71259,-0.04271 0.95211,-0.30816c0.23952,-0.26545 0.3192,-0.63853 0.20902,-0.97866c-0.11018,-0.34013 -0.39348,-0.59563 -0.74315,-0.67022c-0.56989,-0.12132 -1.13172,-0.1243 -1.69727,-0.18164c0.34969,-0.79031 0.85584,-1.50574 1.53516,-2.07422zM28.4375,11.54297l4.51563,3.22266c0.67931,0.56848 1.18547,1.28391 1.53516,2.07422c-0.56555,0.05734 -1.12738,0.06032 -1.69727,0.18164c-0.34967,0.07459 -0.63297,0.33008 -0.74315,0.67022c-0.11018,0.34013 -0.0305,0.71321 0.20902,0.97866c0.23952,0.26545 0.60248,0.38292 0.95211,0.30816c0.58071,-0.12363 1.14406,-0.13564 1.71289,-0.18359c0.00768,0.12062 0.07813,0.22594 0.07813,0.34766v1.64453c-0.73397,0.04969 -1.46735,0.07649 -2.20898,0.23438c-0.34967,0.07459 -0.63297,0.33008 -0.74315,0.67022c-0.11018,0.34013 -0.0305,0.71321 0.20902,0.97866c0.23952,0.26545 0.60248,0.38292 0.95211,0.30816c0.60717,-0.12926 1.19676,-0.14484 1.79102,-0.19141v2c-0.73397,0.04969 -1.46735,0.07649 -2.20898,0.23438c-0.34967,0.07459 -0.63297,0.33008 -0.74315,0.67022c-0.11018,0.34013 -0.0305,0.71321 0.20902,0.97866c0.23952,0.26545 0.60248,0.38292 0.95211,0.30816c0.60717,-0.12926 1.19676,-0.14484 1.79102,-0.19141v2.43945c-1.54136,0.22561 -3.00596,0.6882 -4.14453,1.67969c-0.25183,0.2193 -0.47962,0.4662 -0.69727,0.72461c-0.0263,-0.52501 -0.04554,-0.99826 -0.08594,-1.61719c-0.21064,-3.23405 -0.64555,-5.0083 -1.05469,-6.60547c-0.40913,-1.59717 -0.78818,-3.00295 -0.97266,-5.83398c-0.11786,-1.80926 -0.00422,-3.95913 0.39258,-6.03125zM13.48438,31c1.34506,0 2.55318,0.28671 3.52539,0.83789c-0.00151,0.01169 -0.00281,0.02342 -0.00391,0.03516c0,0 -0.04609,0.46483 -0.4668,1c-0.4207,0.53517 -1.15772,1.12695 -2.95508,1.12695c-2.04563,0 -2.78396,-0.66318 -3.18359,-1.25391c-0.21672,-0.32035 -0.30791,-0.60479 -0.35352,-0.81836c0.95704,-0.5779 2.12715,-0.92773 3.4375,-0.92773zM36.51563,31c1.31035,0 2.48046,0.34984 3.4375,0.92773c-0.04561,0.21357 -0.1368,0.49801 -0.35352,0.81836c-0.39963,0.59073 -1.13796,1.25391 -3.18359,1.25391c-1.79735,0 -2.53437,-0.59179 -2.95508,-1.12695c-0.4207,-0.53517 -0.4668,-1 -0.4668,-1c-0.00109,-0.01174 -0.0024,-0.02346 -0.00391,-0.03516c0.97221,-0.55119 2.18033,-0.83789 3.52539,-0.83789zM18.61133,33.28711c0.60602,0.86919 0.9707,2.01408 0.9707,3.55273c-0.00149,0.13176 0.02306,0.26252 0.07227,0.38477c-0.01484,0.4083 -0.02889,0.8118 -0.05664,1.23828c-0.21552,3.3085 -1.16956,5.20341 -2.23633,6.2793c-1.06677,1.07588 -2.30221,1.39072 -3.2793,1.37305c-0.00065,0 -0.0013,0 -0.00195,0c-2.94866,-0.053 -4.31164,-1.30837 -5.16211,-2.80078c-0.85047,-1.49241 -1.04308,-3.25282 -1.11133,-4.08008c0.00001,-0.0026 0.00001,-0.00521 0,-0.00781c0,0 -0.1539,-1.5813 -0.33594,-3.30273c0.06533,-0.93256 0.41101,-1.81631 0.98047,-2.57227c0.08299,0.1704 0.17621,0.34304 0.29297,0.51563c0.74637,1.10327 2.30148,2.13281 4.83984,2.13281c2.28965,0 3.7618,-0.91679 4.52734,-1.89062c0.21959,-0.27933 0.37456,-0.55748 0.5,-0.82227zM31.38867,33.28711c0.12544,0.26478 0.28041,0.54293 0.5,0.82227c0.76555,0.97383 2.2377,1.89063 4.52734,1.89063c2.53836,0 4.09348,-1.02954 4.83984,-2.13281c0.11676,-0.17259 0.20998,-0.34523 0.29297,-0.51563c0.56946,0.75595 0.91514,1.63971 0.98047,2.57227c-0.18204,1.72142 -0.33594,3.30273 -0.33594,3.30273c-0.00001,0.0026 -0.00001,0.00521 0,0.00781c-0.06825,0.82728 -0.26085,2.58755 -1.11133,4.08008c-0.85048,1.49253 -2.21346,2.74823 -5.16211,2.80078c-0.97742,0.01728 -2.21449,-0.29727 -3.28125,-1.37305c-1.06676,-1.07578 -2.0208,-2.9708 -2.23633,-6.2793c-0.02775,-0.42648 -0.0418,-0.82998 -0.05664,-1.23828c0.0492,-0.12224 0.07376,-0.253 0.07227,-0.38477c0,-1.53865 0.36468,-2.68354 0.9707,-3.55273z"></path></g></g></svg>