<svg version="1.1" xmlns="http://www.w3.org/2000/svg" xmlns:xlink="http://www.w3.org/1999/xlink" width="32px" height="32px" viewBox="0,0,256,256"><g fill="#000000" fill-rule="nonzero" stroke="none" stroke-width="1" stroke-linecap="butt" stroke-linejoin="miter" stroke-miterlimit="10" stroke-dasharray="" stroke-dashoffset="0" font-family="none" font-weight="none" font-size="none" text-anchor="none" style="mix-blend-mode: normal"><g transform="scale(8,8)"><path d="M2,6v20h28v-20zM4,8h24v16h-24zM11.09375,11.625c-0.34375,0.26172 -1.10547,0.84766 -2.5,1.28125v1.53125c0.96094,-0.10547 1.67969,-0.62891 1.78125,-0.71875v6.5h1.84375v-8.59375zM21.25,11.625c-0.34375,0.26172 -1.02344,0.80469 -2.5,1.28125v1.53125c1.09766,-0.17187 1.67969,-0.62891 1.78125,-0.71875v6.5h1.84375v-8.59375zM15.875,14.15625c-0.82031,0 -1.09375,0.58203 -1.09375,0.96875c0,0.70313 0.69531,0.96875 1.09375,0.96875c0.73438,0 1.09375,-0.47266 1.09375,-0.96875c0,-0.36328 -0.26562,-0.96875 -1.09375,-0.96875zM15.875,18.4375c-0.55859,0 -1.09375,0.3125 -1.09375,0.96875c0,0.73047 0.70703,0.96875 1.09375,0.96875c0.74609,0 1.09375,-0.45703 1.09375,-0.96875c0,-0.42969 -0.35547,-0.96875 -1.09375,-0.96875z"></path></g></g></svg>