<svg version="1.1" xmlns="http://www.w3.org/2000/svg" xmlns:xlink="http://www.w3.org/1999/xlink" width="40px" height="40px" viewBox="0,0,256,256"><g fill="#000000" fill-rule="nonzero" stroke="none" stroke-width="1" stroke-linecap="butt" stroke-linejoin="miter" stroke-miterlimit="10" stroke-dasharray="" stroke-dashoffset="0" font-family="none" font-weight="none" font-size="none" text-anchor="none" style="mix-blend-mode: normal"><g transform="scale(3.2,3.2)"><path d="M38.72656,9c-4.83984,0 -9.19141,2.64844 -12.34766,5.22266c-3.15625,2.57813 -5.16797,5.16406 -5.16797,5.16406l-0.90234,1.15625l1.41016,0.41406c0,0 0.54688,0.15234 1.20313,0.82422c0.65234,0.66797 1.35156,1.80859 1.35156,3.96875c0,2.80078 0.42969,5.0625 0.64453,6.01953c-0.55859,0.50781 -0.91797,1.22656 -0.91797,2.03125c0,0.64844 0.19531,1.20313 0.35547,1.74609c0.07813,0.27344 0.15625,0.52734 0.20703,0.71875c0.05078,0.19141 0.0625,0.37891 0.0625,0.23438c0,1.35938 1.14063,2.42188 2.48438,2.46875c0.18359,3.875 2.05078,7.29688 4.89063,9.55078v3.73047c-1.44141,0.4375 -4.90234,1.55469 -8.42578,3.21875c-2.30078,1.08594 -4.61328,2.39453 -6.41406,3.94531c-1.80078,1.55078 -3.16016,3.40625 -3.16016,5.58594v6h52v-6c0,-2.17969 -1.35937,-4.03516 -3.16016,-5.58594c-1.80078,-1.55078 -4.11328,-2.85937 -6.41406,-3.94531c-3.52344,-1.66406 -6.98437,-2.78125 -8.42578,-3.21875v-3.72656c2.83984,-2.25391 4.70703,-5.67578 4.89063,-9.55469c1.34375,-0.04687 2.48438,-1.10937 2.48438,-2.46875c0,0.14453 0.01172,-0.04297 0.0625,-0.23437c0.05078,-0.19141 0.12891,-0.44531 0.20703,-0.71875c0.16016,-0.54297 0.35547,-1.09766 0.35547,-1.74609c0,-0.82031 -0.37109,-1.54297 -0.94141,-2.05469c0.18359,-1.05469 0.94141,-5.57031 0.94141,-8.74609c0,-3.59375 -1.34375,-6.16797 -3.15625,-7.76562c-1.62891,-1.42969 -3.54297,-2.00391 -5.23828,-2.125c-0.27344,-0.43359 -0.75781,-1.11328 -1.76172,-1.89844c-1.44141,-1.12109 -3.75391,-2.21094 -7.11719,-2.21094zM38.72656,11c2.9375,0 4.76172,0.91016 5.88281,1.78906c1.125,0.87891 1.49609,1.65234 1.49609,1.65234l0.27344,0.55859h0.62109c1.33203,0 3.125,0.50781 4.51953,1.73828c1.39844,1.23047 2.48047,3.15234 2.48047,6.26172c0,2.78906 -0.66406,6.85938 -0.85937,8c-0.00391,0 -0.00781,0 -0.01562,0c-0.08594,0 -0.07031,0.01953 -0.125,0.02734v-3.02734c0,-3.42187 -1.39844,-5.72266 -2.80469,-7.08594c-1.40625,-1.36328 -2.87891,-1.86328 -2.87891,-1.86328l-0.57031,-0.19141l-0.4375,0.41797c0,0 -0.62891,0.61719 -2.14844,1.3125c-1.51953,0.69531 -3.87109,1.41016 -7.16016,1.41016c-1.80078,0 -4.17187,0.63672 -6.23047,2.07422c-2.05078,1.43359 -3.75781,3.77734 -3.76562,6.95703c-0.05469,-0.00781 -0.04297,-0.03125 -0.12891,-0.03125c-0.02344,0 -0.04687,0.00781 -0.07031,0.00781c-0.20312,-0.96484 -0.53125,-2.84766 -0.53125,-5.25781c0,-2.61719 -0.9375,-4.35547 -1.91797,-5.36328c-0.41797,-0.42969 -0.51172,-0.35547 -0.875,-0.57031c0.69141,-0.8125 1.97656,-2.25391 4.16406,-4.03906c2.97266,-2.42578 6.98828,-4.77734 11.08203,-4.77734zM47,21.15625c0.24219,0.09375 0.875,0.29297 1.80469,1.19141c1.09375,1.0625 2.19531,2.75781 2.19531,5.65234v6.30469l1.50391,-0.88281c0.25781,-0.14844 0.49609,-0.28125 0.66406,-0.36719c0.01953,-0.01172 0.02734,-0.01172 0.04688,-0.02344c0.45703,0.04688 0.78516,0.36719 0.78516,0.76563v0.00391c0,0.07422 -0.12109,0.66016 -0.27344,1.18359c-0.07812,0.25781 -0.15625,0.51953 -0.22266,0.75781c-0.0625,0.23828 -0.12891,0.40625 -0.12891,0.75781c0,0.26563 -0.21875,0.5 -0.5625,0.5h-1.8125v1.36719c0,5.42188 -3.91016,9.90234 -9.05859,10.82031l-0.28516,0.04688l-0.21484,0.19922c-0.39062,0.35547 -0.88281,0.56641 -1.44141,0.56641c-0.55859,0 -1.05078,-0.21094 -1.44141,-0.56641l-0.21484,-0.19922l-0.28516,-0.04687c-5.14844,-0.91797 -9.05859,-5.39844 -9.05859,-10.82031v-1.36719h-1.8125c-0.34375,0 -0.5625,-0.23437 -0.5625,-0.5c0,-0.35156 -0.06641,-0.51953 -0.13281,-0.75781c-0.06641,-0.23828 -0.14453,-0.5 -0.22266,-0.75781c-0.15234,-0.52344 -0.26953,-1.10937 -0.26953,-1.18359c0,-0.40234 0.32813,-0.72266 0.78516,-0.76953c0.01953,0.01172 0.02734,0.01172 0.04688,0.02344c0.16797,0.08594 0.40625,0.21875 0.66406,0.36719l1.50391,0.88281v-3.25391c0,-2.49219 1.24219,-4.16797 2.91406,-5.33594c1.67188,-1.16797 3.79688,-1.71484 5.08594,-1.71484c3.58203,0 6.23047,-0.78516 7.99219,-1.58984c1.30859,-0.59766 1.65234,-0.96484 2.00781,-1.25391zM34.5,33c-0.82812,0 -1.5,0.67188 -1.5,1.5c0,0.82813 0.67188,1.5 1.5,1.5c0.82813,0 1.5,-0.67187 1.5,-1.5c0,-0.82812 -0.67187,-1.5 -1.5,-1.5zM45.5,33c-0.82812,0 -1.5,0.67188 -1.5,1.5c0,0.82813 0.67188,1.5 1.5,1.5c0.82813,0 1.5,-0.67187 1.5,-1.5c0,-0.82812 -0.67187,-1.5 -1.5,-1.5zM34,49.82422c1.06641,0.55859 2.21875,0.98828 3.44141,1.23438c0.70703,0.5625 1.58203,0.94141 2.55859,0.94141c0.97266,0 1.84375,-0.37891 2.54688,-0.9375c1.22656,-0.24219 2.38281,-0.67187 3.45313,-1.23437v5.85938c-0.12109,0.24219 -1.70312,3.3125 -6,3.3125c-4.29687,0 -5.87891,-3.07031 -6,-3.3125zM32,54.35547v1.87891l0.10547,0.21484c0,0 2.35938,4.55078 7.89453,4.55078c5.53516,0 7.89453,-4.55078 7.89453,-4.55078l0.10547,-0.21484v-1.87891c1.60547,0.50391 4.54688,1.49609 7.57422,2.92578c2.19922,1.03906 4.38672,2.29297 5.96094,3.64844c1.57422,1.35547 2.46484,2.75 2.46484,4.07031v4h-48v-4c0,-1.32031 0.89063,-2.71484 2.46484,-4.07031c1.57422,-1.35547 3.76172,-2.60937 5.96094,-3.64844c3.02734,-1.42969 5.96875,-2.42187 7.57422,-2.92578zM20,65c-0.55078,0 -1,0.44922 -1,1c0,0.55078 0.44922,1 1,1c0.55078,0 1,-0.44922 1,-1c0,-0.55078 -0.44922,-1 -1,-1zM24,65c-0.55078,0 -1,0.44922 -1,1c0,0.55078 0.44922,1 1,1c0.55078,0 1,-0.44922 1,-1c0,-0.55078 -0.44922,-1 -1,-1zM28,65c-0.55078,0 -1,0.44922 -1,1c0,0.55078 0.44922,1 1,1c0.55078,0 1,-0.44922 1,-1c0,-0.55078 -0.44922,-1 -1,-1zM32,65c-0.55078,0 -1,0.44922 -1,1c0,0.55078 0.44922,1 1,1c0.55078,0 1,-0.44922 1,-1c0,-0.55078 -0.44922,-1 -1,-1zM36,65c-0.55078,0 -1,0.44922 -1,1c0,0.55078 0.44922,1 1,1c0.55078,0 1,-0.44922 1,-1c0,-0.55078 -0.44922,-1 -1,-1zM40,65c-0.55078,0 -1,0.44922 -1,1c0,0.55078 0.44922,1 1,1c0.55078,0 1,-0.44922 1,-1c0,-0.55078 -0.44922,-1 -1,-1zM44,65c-0.55078,0 -1,0.44922 -1,1c0,0.55078 0.44922,1 1,1c0.55078,0 1,-0.44922 1,-1c0,-0.55078 -0.44922,-1 -1,-1zM48,65c-0.55078,0 -1,0.44922 -1,1c0,0.55078 0.44922,1 1,1c0.55078,0 1,-0.44922 1,-1c0,-0.55078 -0.44922,-1 -1,-1zM52,65c-0.55078,0 -1,0.44922 -1,1c0,0.55078 0.44922,1 1,1c0.55078,0 1,-0.44922 1,-1c0,-0.55078 -0.44922,-1 -1,-1zM56,65c-0.55078,0 -1,0.44922 -1,1c0,0.55078 0.44922,1 1,1c0.55078,0 1,-0.44922 1,-1c0,-0.55078 -0.44922,-1 -1,-1zM60,65c-0.55078,0 -1,0.44922 -1,1c0,0.55078 0.44922,1 1,1c0.55078,0 1,-0.44922 1,-1c0,-0.55078 -0.44922,-1 -1,-1z"></path></g></g></svg>